<?xml version="1.0" encoding="utf-8"?>
<!-- Generator: Adobe Illustrator 19.0.0, SVG Export Plug-In . SVG Version: 6.00 Build 0)  -->
<svg version="1.1" id="Layer_1" xmlns="http://www.w3.org/2000/svg" xmlns:xlink="http://www.w3.org/1999/xlink" x="0px" y="0px"
	 viewBox="0 0 360 360" style="enable-background:new 0 0 360 360;" xml:space="preserve">
<style type="text/css">
	.st0{fill:#FFFFFF;}
	.st1{fill:#D8D8D8;}
</style>
<g>
	<polygon id="XMLID_15_" class="st0" points="179.5,261.9 197.1,261.9 188.5,231.2 	"/>
	<path id="XMLID_14_" class="st0" d="M100.4,263.1H85.5V290h14.9c8.7,0,14.1-4.1,14.1-13C114.5,267.8,108.6,263.1,100.4,263.1z"/>
	<path id="XMLID_13_" class="st0" d="M117.9,95.6c0-12.1-6-15.1-13.9-15.1H87V111h17C111.9,111,117.9,107.5,117.9,95.6z"/>
	<path id="XMLID_12_" class="st0" d="M102.4,212.1H85.5v27.3H102c9.7,0,13-5.2,13-13.6C115,218.1,109.8,212.1,102.4,212.1z"/>
	<path class="st0" d="M317.5,31.9H44c-7,0-12.7,5.7-12.7,12.7v273.5c0,7,5.7,12.7,12.7,12.7h273.5c7,0,12.7-5.7,12.7-12.7V44.6
		C330.2,37.6,324.5,31.9,317.5,31.9z M224,98.4c0-24.1,14.6-39.9,35.6-39.9h7.7c20.3,0,34.5,15.9,34.9,38.7c0,1.7-0.8,2.5-2.5,2.5
		h-17.1c-1.7,0-2.7-0.8-2.7-2.5c0-11.7-3.4-16.6-12.6-16.6h-7.7c-9.9,0-13.4,4.7-13.4,17.8V144c0,13.1,3.5,18.1,13.4,18.1h7.7
		c9.2,0,12.7-5,12.6-16.9c0-1.7,1-2.5,2.7-2.5h17.1c1.7,0,2.5,0.8,2.5,2.5c-0.2,23-14.6,39.1-34.9,39.1h-7.7
		c-21,0-35.6-16.1-35.6-40.2V98.4z M141.7,98.4c0-24.1,14.6-39.9,35.6-39.9h7.7c20.3,0,34.5,15.9,34.9,38.7c0,1.7-0.8,2.5-2.5,2.5
		h-17.1c-1.7,0-2.7-0.8-2.7-2.5c0-11.7-3.4-16.6-12.6-16.6h-7.7c-9.9,0-13.4,4.7-13.4,17.8V144c0,13.1,3.5,18.1,13.4,18.1h7.7
		c9.2,0,12.7-5,12.6-16.9c0-1.7,1-2.5,2.7-2.5h17.1c1.7,0,2.5,0.8,2.5,2.5c-0.2,23-14.6,39.1-34.9,39.1h-7.7
		c-21,0-35.6-16.1-35.6-40.2L141.7,98.4L141.7,98.4z M64.9,62.9c0-1.7,0.8-2.5,2.5-2.5h39.9c20,0,32.7,13.7,32.7,35.2
		s-12.7,35.6-32.7,35.6H87v48.5c0,1.7-0.8,2.5-2.5,2.5H67.4c-1.7,0-2.5-0.8-2.5-2.5V62.9z M107.4,312.7h-41c-2,0-3-1-3-3V194
		c0-2,1-3,3-3h39.9c18.8,0,33,12.1,33,31.5c0,13.6-4.5,22.6-13.6,27.7c10.4,4.5,16.4,15.1,16.4,30.3
		C142.1,301.3,129.4,312.7,107.4,312.7z M232.1,312.7h-17.3c-1.7,0-2.9-0.8-3.4-2.7l-7.4-25.8h-31.8l-7.5,25.8
		c-0.5,1.8-1.5,2.7-3.2,2.7h-17.4c-1.7,0-2.3-0.8-1.8-2.7l36.2-116.8c0.5-1.7,1.7-2.7,3.2-2.7h13.4c1.5,0,2.7,1,3.2,2.7L234.1,310
		C234.6,311.9,233.8,312.7,232.1,312.7z M305.8,193.5l-32.7,65.7v50.9c0,1.7-0.8,2.5-2.5,2.5h-18.1c-1.7,0-2.5-0.8-2.5-2.5v-50.9
		l-31.4-65.7c-0.8-1.7,0-2.5,1.7-2.5h21.1c1.7,0,2.5,0.8,3.4,2.5l17.3,37.7l18.1-37.7c0.8-1.7,1.7-2.5,3.4-2.5h20.6
		C305.8,191,306.6,191.9,305.8,193.5z"/>
</g>
<g>
	<path id="XMLID_4_" class="st1" d="M85.5,290h14.9c8.7,0,14.1-4.1,14.1-13c0-9.3-5.9-13.9-14.1-13.9h-9.1c-1.9,1.1-3.9,2.2-5.8,3.3
		V290z"/>
	<polygon id="XMLID_3_" class="st1" points="179.5,261.9 197.1,261.9 188.5,231.2 	"/>
	<path class="st1" d="M317.5,31.9h-23.4c0,0-5.2,11-15.3,28.5c13.9,4.9,23.1,18.6,23.3,36.8c0,1.7-0.8,2.5-2.5,2.5h-17.1
		c-1.7,0-2.7-0.8-2.7-2.5c0-11.7-3.4-16.6-12.6-16.6h-0.5c-5.9,9.6-12.8,20.2-20.6,31.4v32c0,13.1,3.5,18.1,13.4,18.1h7.7
		c9.2,0,12.7-5,12.6-16.9c0-1.7,1-2.5,2.7-2.5h17.1c1.7,0,2.5,0.8,2.5,2.5c-0.2,23-14.6,39.1-34.9,39.1h-7.7
		c-21,0-35.6-16.1-35.6-40.2v-2c-1.4,1.8-2.8,3.6-4.3,5.4c-1,20.5-13.7,35.1-31.6,36.6c-2,2.1-4,4.3-6.1,6.4h13c1.5,0,2.7,1,3.2,2.7
		l36,116.8c0.5,1.8-0.3,2.7-2,2.7h-17.3c-1.7,0-2.9-0.8-3.4-2.7l-7.4-25.8h-31.8l-7.5,25.8c-0.5,1.8-1.5,2.7-3.2,2.7h-17.4
		c-1.7,0-2.3-0.8-1.8-2.7l35.8-115.4c-12.3,12.4-25.4,24.4-39.4,35.7c-1.5,9.3-5.8,15.9-12.9,19.9c10.4,4.5,16.4,15.1,16.4,30.3
		c0,20.8-12.7,32.2-34.7,32.2H66.4c-2,0-3-1-3-3v-32c-10.4,4.7-21,8.9-32,12.4v25.6c0,0-1,15.1,14.7,15.1s271.4,0,271.4,0
		s12.7-1.6,12.7-12.7s0-273.5,0-273.5S330.1,33.3,317.5,31.9z M305.8,193.5l-32.7,65.7v51c0,1.7-0.8,2.5-2.5,2.5h-18.1
		c-1.7,0-2.5-0.8-2.5-2.5v-51l-31.4-65.7c-0.8-1.7,0-2.5,1.7-2.5h21.1c1.7,0,2.5,0.8,3.4,2.5l17.3,37.7l18.1-37.7
		c0.8-1.7,1.7-2.5,3.4-2.5h20.6C305.8,191,306.6,191.9,305.8,193.5z"/>
</g>
</svg>
