<?xml version="1.0" encoding="utf-8"?>
<!-- Generator: Adobe Illustrator 19.0.0, SVG Export Plug-In . SVG Version: 6.00 Build 0)  -->
<svg version="1.1" id="Layer_1" xmlns="http://www.w3.org/2000/svg" xmlns:xlink="http://www.w3.org/1999/xlink" x="0px" y="0px"
	 viewBox="105 1.6 363 241" style="enable-background:new 105 1.6 363 241;" xml:space="preserve">
<style type="text/css">
	.st0{fill:#FFFFFF;}
</style>
<path class="st0" d="M361,80.7c0,0-6.9,1.5-13.5,1.5c-6.7,0-17.6-1.3-20.2-2.6c-2.6-1.2-4.2-2-6.2-3c-10.1-4.9-18.5-9-18.5-9
	c-0.3-0.1-0.6-0.2-0.9-0.3c-0.1,0-0.1,0-0.2-0.1c-1-0.4-2.2-0.7-3.3-0.9l-28.8-4.1l-31.8,27.6c0.5,0.5,1.3,1.2,2.3,1.8
	c0.6,0.4,1.4,0.9,2.2,1.3c0.7,0.4,1.5,0.7,2.4,1c0.4,0.1,0.7,0.3,1.1,0.4c4.5,1.3,11.3,1.5,19-3.6c0.7-0.5,4.9-3.3,6.2-4.2
	c2-1.4,5.7-2.8,11.1-2.3c5.4,0.5,14,3.1,14,3.1l32.2,18l48.9,33.5l-6.1-26.6l-8.3-22.8L361,80.7z"/>
<polygon class="st0" points="387.1,160.7 411.6,152.4 433.8,149 456.7,141.5 454.3,124.1 435.5,71.7 431.6,50.7 404.8,60.5 
	383.8,62.7 361.9,69.9 376.9,115.4 "/>
<polygon class="st0" points="183.4,159.1 160,148.1 138.2,142.3 116.3,132.4 120.6,115.3 145,65.3 151.2,44.8 176.7,57.5 
	197.3,61.9 218.3,71.5 198.4,115.1 "/>
<g>
	<polygon class="st0" points="231,141.2 247.8,146.5 243.4,162.7 238.3,176.7 233.7,176.5 229.5,175.1 226.4,174.2 222.4,168.3 	"/>
</g>
<g>
	<polygon class="st0" points="252.9,144.9 270.1,149 267.7,160.8 263.1,171.2 260,180.9 257,186.5 253.9,186.8 248.1,186.3 
		244.2,183.8 241.3,181.6 244.6,169.6 249.5,155.7 	"/>
</g>
<g>
	<polygon class="st0" points="272.5,156.8 289.3,162.1 280.6,189.3 277,196.7 274.6,197.2 266.7,196 261,192.9 265.6,174.4 	"/>
</g>
<g>
	<polygon class="st0" points="310.8,180.2 292.2,168.9 286.7,186.4 302.7,196.9 308.9,199.5 314,195.7 317.9,185.9 	"/>
</g>
<g>
	<polygon class="st0" points="209.8,135.2 221.6,139 226.6,140.5 224,151.4 220.3,159.8 209.8,158.6 204.9,154.7 205.7,148.1 	"/>
</g>
<g>
	<path class="st0" d="M370.3,139.3l-49.3-33L294,91.4l-12.5-2.6l-8.1,1.5c0,0-5.6,3.8-6.3,4.3c-5.6,3.7-11.4,5.4-17.2,5.1
		c-1.8-0.1-3.6-0.4-5.4-0.9c-0.4-0.1-0.7-0.2-1.1-0.3l-0.2-0.1c-1-0.4-2-0.8-2.9-1.2c-1-0.5-1.9-1-2.7-1.6c-1.2-0.8-2.2-1.6-3-2.5
		l-3.2-3.3l3.5-3.1c0.5-0.4,7.5-6.6,14.3-12.6c-2.9,0.2-5.6,0.4-7.9,0.8c-8.6,1.5-22.4,7.7-22.4,7.7l-22,56.3c0,0,3.4,5.9,4.4,7.3
		l4-12.6l1.5-4.6l4.6,1.5l11.8,3.7l4.6,1.4l0.2-0.7l4.6,1.5l16.4,5.2l0.8-2.6l4.4,1.1l6,1.5c1,0.1,2,0.2,3,0.6
		c0.4,0.1,0.9,0.3,1.3,0.5l6.8,1.7l4.6,1.1l-1,4.6l-0.5,2.2l16.3,5.2l4.6,1.5l-1.5,4.6l-0.3,1l16.9,9.7l17.2,12.6l6.7-2.2l1.8-2.7
		l2.4-3.8l1.4-4.3l-4.8-3.4c-0.4-0.4-0.9-0.8-1.4-1.1l-1.5-1l-4.3-3.1L298,146.4l4.7-2.3l14,8.9c0,0,0,0,0.1,0.1l26.8,17
		c0.9,0.6,1.8,0.9,2.7,1.1l2.9,1.8l2.9-2.2l0.7-0.6c0.9-0.6,1.8-1.3,2.5-2.2l0.3-0.3l0.1-0.3c0,0,0,0,0,0c0.7-1,1.1-2.2,1.3-3.3
		l0.7-1.7l-0.2-2.9l-4.6-4.5l-8.5-5.5l-8.9-7.2l-25.9-15.7c0.1-0.3,0.9-0.7,1.1-1c0.7-1.1,2.2-1.4,3.3-0.7l11.6,7.4l11,7l15.4,10.5
		l10.1,5.7l0.4,0.2c0.3,0.2,0.7,0.4,1,0.6l5.2,2.9l3.5-3.7c0.9-0.6,1.8-1.5,2.4-2.5c0.9-1.5,1.4-3.1,1.4-4.7l0.5-1.1l0.2-2.5
		L370.3,139.3z"/>
</g>
</svg>
